<?xml version="1.0" encoding="iso-8859-1"?>
<!-- Generator: Adobe Illustrator 16.0.0, SVG Export Plug-In . SVG Version: 6.00 Build 0)  -->
<!DOCTYPE svg PUBLIC "-//W3C//DTD SVG 1.1//EN" "http://www.w3.org/Graphics/SVG/1.1/DTD/svg11.dtd">
<svg version="1.1" id="Capa_1" xmlns="http://www.w3.org/2000/svg" xmlns:xlink="http://www.w3.org/1999/xlink" x="0px" y="0px"
	 width="94px" height="94px" viewBox="0 0 94 94" style="enable-background:new 0 0 94 94;" xml:space="preserve">
<g>
	<g>
		<path d="M43.45,41.665c-0.922,0-1.639,0.261-2.146,0.785c-0.508,0.524-0.828,1.234-0.961,2.131h6.201
			c-0.066-0.956-0.385-1.68-0.959-2.175C45.011,41.913,44.3,41.665,43.45,41.665z"/>
		<path d="M89,0H5C2.238,0,0,2.239,0,5v84c0,2.761,2.238,5,5,5h84c2.762,0,5-2.239,5-5V5C94,2.239,91.762,0,89,0z M20.134,52.823
			H8.175V34.217h11.848v3.294h-8.047v3.952h8.146v3.231h-8.146v4.783h8.158V52.823z M28.647,59.783h-3.906l2.684-6.713
			l-5.947-14.364h4l3.896,10.147l3.73-10.147h3.824l-5.564,14.03L28.647,59.783z M50.277,46.953H40.257
			c0.055,1.38,0.535,2.348,1.439,2.902c0.549,0.347,1.209,0.518,1.98,0.518c0.82,0,1.486-0.21,2-0.631
			c0.279-0.227,0.523-0.542,0.742-0.946h3.672c-0.098,0.815-0.543,1.646-1.334,2.486c-1.234,1.338-2.959,2.007-5.176,2.007
			c-1.834,0-3.447-0.564-4.848-1.693c-1.398-1.128-2.1-2.964-2.1-5.507c0-2.383,0.631-4.212,1.895-5.483
			c1.264-1.271,2.904-1.908,4.922-1.908c1.197,0,2.275,0.215,3.234,0.646c0.961,0.429,1.752,1.108,2.377,2.035
			c0.562,0.818,0.93,1.766,1.098,2.844C50.257,44.855,50.294,45.765,50.277,46.953z M64.337,52.823H52.378V34.217h11.847v3.294
			h-8.048v3.952h8.146v3.231h-8.146v4.783h8.16V52.823z M85.798,52.975h-3.687v-8.762c0-0.521-0.082-0.951-0.252-1.288
			c-0.317-0.639-0.909-0.959-1.768-0.959c-0.992,0-1.678,0.413-2.059,1.238c-0.193,0.438-0.289,0.962-0.289,1.577v8.191h-3.623
			v-8.191c0-0.816-0.084-1.41-0.252-1.78c-0.303-0.665-0.896-0.997-1.779-0.997c-1.027,0-1.717,0.332-2.07,0.997
			c-0.194,0.379-0.289,0.943-0.289,1.691v8.281h-3.647V39.24h3.496v2.007c0.444-0.715,0.866-1.224,1.262-1.527
			c0.699-0.539,1.604-0.809,2.714-0.809c1.053,0,1.901,0.231,2.551,0.695c0.522,0.429,0.918,0.98,1.188,1.653
			c0.471-0.808,1.055-1.401,1.754-1.78c0.742-0.378,1.564-0.568,2.475-0.568c0.605,0,1.201,0.118,1.791,0.354
			c0.588,0.235,1.125,0.648,1.604,1.236c0.388,0.48,0.647,1.07,0.781,1.769c0.086,0.463,0.129,1.14,0.129,2.032L85.798,52.975z"/>
	</g>
</g>
<g>
</g>
<g>
</g>
<g>
</g>
<g>
</g>
<g>
</g>
<g>
</g>
<g>
</g>
<g>
</g>
<g>
</g>
<g>
</g>
<g>
</g>
<g>
</g>
<g>
</g>
<g>
</g>
<g>
</g>
</svg>
